<svg id="Layer_1" data-name="Layer 1" xmlns="http://www.w3.org/2000/svg" viewBox="0 0 805.4 169.8"><defs><style>.cls-1{isolation:isolate;}.cls-2{fill:#bfbebe;}.cls-3{fill:none;}.cls-4{fill:#f7bc16;}.cls-5{fill:#74bf44;}</style></defs><title>smart-eclips-logo</title><g class="cls-1"><g class="cls-1"><path class="cls-2" d="M69.3,9.5a30.2,30.2,0,0,1,9,1.3,20.2,20.2,0,0,1,7.3,3.7,17.5,17.5,0,0,1,5,6.6,21.2,21.2,0,0,1,1.9,9.5v1.2H78.9v-.9a10.1,10.1,0,0,0-2.6-7.2A9.3,9.3,0,0,0,69.2,21q-5,0-7.5,2.1a7,7,0,0,0-2.5,5.5A6.3,6.3,0,0,0,60.7,33a11.9,11.9,0,0,0,3.9,3,35,35,0,0,0,5.5,2.2l6.4,2.1a49.1,49.1,0,0,1,6.3,2.6,21.3,21.3,0,0,1,5.6,3.8,16.9,16.9,0,0,1,3.9,5.7,20.5,20.5,0,0,1,1.5,8.3,25.6,25.6,0,0,1-1.9,10.5,17.4,17.4,0,0,1-5.1,7,23.1,23.1,0,0,1-8,4,40.5,40.5,0,0,1-10.1,1.2A28.9,28.9,0,0,1,59.3,82a22.2,22.2,0,0,1-7.9-4.2A18.5,18.5,0,0,1,46,70.9a21.3,21.3,0,0,1-2-9.7V60a4.5,4.5,0,0,0,.1-1.1H57.9v.8c0,.3-.1.7-.1.9a13,13,0,0,0,.8,4.6,10.9,10.9,0,0,0,2.2,3.6,9.7,9.7,0,0,0,3.6,2.3,12.3,12.3,0,0,0,4.9.8,14.3,14.3,0,0,0,5-.7,10.1,10.1,0,0,0,3.4-1.9,8,8,0,0,0,1.8-2.7,8.1,8.1,0,0,0,.6-3.1,8.3,8.3,0,0,0-1-4.3,8.6,8.6,0,0,0-2.6-3.1,18.2,18.2,0,0,0-3.9-2.3c-1.5-.6-3-1.2-4.7-1.7l-5.1-1.7-5.2-2a32.4,32.4,0,0,1-4.7-2.8,19,19,0,0,1-3.8-3.7,17.6,17.6,0,0,1-2.7-5.3,24.3,24.3,0,0,1-1-7.1,19,19,0,0,1,2-8.8,17.5,17.5,0,0,1,5.2-6.2,21.5,21.5,0,0,1,7.6-3.7A30.3,30.3,0,0,1,69.3,9.5Z" transform="translate(-44 -9.5)"/><path class="cls-2" d="M151,82.2V36.7c0-.8,0-1.8.1-3.1s.1-2.6.2-3.8.1-2.9.2-4.5h-.4L138.6,82.2H127.1L114.5,25.3h-.4l.3,4.7v1.9a11.5,11.5,0,0,1,.1,1.9c0,.6.1,1.1.1,1.6V82.2H103.3V10.8H122l8.8,39.3c.1.6.3,1.3.4,2s.3,1.6.5,2.5.3,1.8.5,2.7a25.1,25.1,0,0,1,.4,2.7c.4,2,.7,4.1,1.1,6.3h.4c.2-2.3.5-4.5.8-6.5l.3-2.7a25.1,25.1,0,0,0,.4-2.7c.2-.9.3-1.7.4-2.4s.3-1.4.4-1.9l8.8-39.3h18.1V82.2Z" transform="translate(-44 -9.5)"/><path class="cls-2" d="M230.2,82.2H216.6l-4.3-14.1H186l-4.3,14.1H168.8l23-71.4h15.5ZM199,22.8c-.2,1.2-.5,2.4-.7,3.6s-.4,2-.7,3.1-.5,2.1-.7,2.9l-7.3,23.9h19l-7.2-23.9c-.2-.9-.5-1.9-.8-3.1s-.5-2.1-.6-3.1a20.2,20.2,0,0,1-.6-3.4Z" transform="translate(-44 -9.5)"/><path class="cls-2" d="M249.9,52.4V82.2H236.6V10.8h29.8a27.5,27.5,0,0,1,9.5,1.5,18.8,18.8,0,0,1,6.8,4.3,16.2,16.2,0,0,1,4.2,6.4,23.9,23.9,0,0,1,1.4,8.2,20.5,20.5,0,0,1-.9,6.1,16.9,16.9,0,0,1-2.3,5.1,19,19,0,0,1-3.8,4.2,17.7,17.7,0,0,1-5,2.9l13.8,32.7H275.6L263.7,52.4Zm0-29.7v18h14.7c3.2,0,5.6-.9,7.1-2.5a10.3,10.3,0,0,0,2.2-7,8.8,8.8,0,0,0-2.1-6.2c-1.4-1.5-3.6-2.3-6.7-2.3Z" transform="translate(-44 -9.5)"/><path class="cls-2" d="M342.3,22.7H324.6V82.2H311.3V22.7H293.7V10.8h48.6Z" transform="translate(-44 -9.5)"/></g></g><rect class="cls-3" x="400.1" y="25.7" width="405.3" height="144.09"/><g class="cls-1"><path class="cls-4" d="M477.2,44.5a37.8,37.8,0,0,1,12.3,1.9,24.9,24.9,0,0,1,9.9,6A27.7,27.7,0,0,1,506,62.7a41.6,41.6,0,0,1,2.4,14.9H492.2a31.5,31.5,0,0,0-1.1-8.6,17,17,0,0,0-3.1-6,10.8,10.8,0,0,0-4.7-3.6,15.4,15.4,0,0,0-6.1-1.2,16.1,16.1,0,0,0-7.8,1.8,15.5,15.5,0,0,0-5.4,5.4,25.7,25.7,0,0,0-3.3,8.6,56.9,56.9,0,0,0-1,11.4v6.3a50.1,50.1,0,0,0,1.1,11.4,25.2,25.2,0,0,0,3.3,8.5,15.2,15.2,0,0,0,5.6,5.4,15.8,15.8,0,0,0,8,1.9,15.6,15.6,0,0,0,6.2-1.2,12.2,12.2,0,0,0,4.8-3.6,14.8,14.8,0,0,0,3.1-6,30.2,30.2,0,0,0,1.1-8.5h15.5a39.7,39.7,0,0,1-2.4,14.5,26.4,26.4,0,0,1-6.5,10.3,26.8,26.8,0,0,1-9.9,6.2,38.4,38.4,0,0,1-12.4,2,35.8,35.8,0,0,1-14.3-2.7,27.5,27.5,0,0,1-10.7-8.1,37.2,37.2,0,0,1-6.6-13.7,74.5,74.5,0,0,1-2.3-19.5A75.3,75.3,0,0,1,445.6,69a37.2,37.2,0,0,1,6.6-13.7,25.7,25.7,0,0,1,10.7-8.1A35.8,35.8,0,0,1,477.2,44.5Z" transform="translate(-44 -9.5)"/><path class="cls-4" d="M519.9,46h15.9v70.2h35.9v14.9H519.9Z" transform="translate(-44 -9.5)"/><path class="cls-4" d="M596.7,131.1H580.8V46h15.9Z" transform="translate(-44 -9.5)"/><path class="cls-4" d="M626.2,98.1v33H610.3V46h30.4a31.7,31.7,0,0,1,11.6,1.9,22.2,22.2,0,0,1,13.4,13.4,31.3,31.3,0,0,1,1.6,10.3,29.7,29.7,0,0,1-1.9,10.9,22.1,22.1,0,0,1-5.4,8.3,24.3,24.3,0,0,1-8.4,5.4,31.5,31.5,0,0,1-10.9,1.9Zm0-37.9V84.1h12.9c3.8,0,6.8-1.1,8.8-3.3s3.1-5.3,3.1-9.2-1-6.3-3.1-8.4-5-3-8.8-3Z" transform="translate(-44 -9.5)"/><path class="cls-4" d="M704.5,44.5a40.7,40.7,0,0,1,10.7,1.4,23.9,23.9,0,0,1,8.8,4.6,21.4,21.4,0,0,1,6,7.8,25.9,25.9,0,0,1,2.2,11.3v1.5H716V69.9a12.2,12.2,0,0,0-3.1-8.6c-2-2.1-4.9-3.1-8.5-3.1s-6.8.8-8.9,2.5a8.2,8.2,0,0,0-3,6.5,7.9,7.9,0,0,0,1.8,5.3,13.6,13.6,0,0,0,4.7,3.6,41.3,41.3,0,0,0,6.6,2.6l7.5,2.4a71.2,71.2,0,0,1,7.6,3.1,27,27,0,0,1,6.6,4.6,21.1,21.1,0,0,1,4.7,6.8,24.3,24.3,0,0,1,1.8,9.9,32.9,32.9,0,0,1-2.2,12.5,23,23,0,0,1-6.2,8.4,26.4,26.4,0,0,1-9.5,4.7,46.1,46.1,0,0,1-12.1,1.5,37.5,37.5,0,0,1-11.2-1.7,27.4,27.4,0,0,1-9.4-5,24,24,0,0,1-6.4-8.3,26,26,0,0,1-2.4-11.5v-1.5a5.7,5.7,0,0,0,.1-1.2H691v.8a5.7,5.7,0,0,0-.1,1.2,15.9,15.9,0,0,0,.9,5.5,11.2,11.2,0,0,0,2.7,4.3,10.9,10.9,0,0,0,4.2,2.7,15,15,0,0,0,5.8,1,18.2,18.2,0,0,0,6.1-.9,11.1,11.1,0,0,0,4-2.3,8.7,8.7,0,0,0,2.2-3.2,11.5,11.5,0,0,0,.6-3.7,11.3,11.3,0,0,0-1.1-5.1,10.4,10.4,0,0,0-3.2-3.7,20.6,20.6,0,0,0-4.6-2.7l-5.6-2.1-6.1-2a55.3,55.3,0,0,1-6.1-2.4,28.4,28.4,0,0,1-5.6-3.3,20,20,0,0,1-4.7-4.5,19,19,0,0,1-3.1-6.2,26.8,26.8,0,0,1-1.2-8.5,22,22,0,0,1,2.4-10.5,20.3,20.3,0,0,1,6.2-7.4,27.2,27.2,0,0,1,9-4.5A43.2,43.2,0,0,1,704.5,44.5Z" transform="translate(-44 -9.5)"/><path class="cls-4" d="M745.9,131.1V46h54.2V60.2H761.8V80.5h32.9V94.6H761.8V117h39.1v14.1Z" transform="translate(-44 -9.5)"/></g><path class="cls-5" d="M348.7,52.8s-5.2,28.3,44.8,79.7c0,0,44.8-39.9,44.8-79.7,0,0,.1-13.9-5.4-19l-15,17.4s3.2,12.5-5.1,20.5c0,0-11.6,15.8-31.6,5.8,0,0-14.4-9.3-12.2-24.7Z" transform="translate(-44 -9.5)"/><path class="cls-5" d="M370.9,65.6s2.1,9,10.6,12l45.9-51S407-.4,374.5,13.8c0,0-25.8,13.9-25.8,39.1H369s3.7-28.3,32.6-20.8Z" transform="translate(-44 -9.5)"/></svg>