<?xml version="1.0" encoding="utf-8"?>
<!-- Generator: Adobe Illustrator 17.0.0, SVG Export Plug-In . SVG Version: 6.00 Build 0)  -->
<!DOCTYPE svg PUBLIC "-//W3C//DTD SVG 1.1//EN" "http://www.w3.org/Graphics/SVG/1.1/DTD/svg11.dtd">
<svg version="1.1" id="Layer_1" xmlns="http://www.w3.org/2000/svg" xmlns:xlink="http://www.w3.org/1999/xlink" x="0px" y="0px"
	 width="200px" height="200px" viewBox="0 0 200 200" enable-background="new 0 0 200 200" xml:space="preserve">
<g>
	<path d="M164.832,46.84c0,0-6.999,1.508-7.999,8.674H156l0.192-23.097c0,0-0.797-9.534-3.409-11.826c0,0-2.952-4.267-10.283-4.216
		l-82.054,0.089c0,0-12.279-0.616-12.446,16.051v29l-1.629,0.088c0,0,4.279-16.5-11.879-14.544c0,0-9.734,4.388-4.779,13.338
		c0,0,2.907,6.75,12.764,4.184c0,0,5.498-0.864,5.511,6.868l0.006,18.939l0.336,4.344c0,0-2.08,14.857,1.344,23.807
		c0,0,5.326,27.051,36.326,30.18v10.795c0,0,2.051,2.27,3.154,5.029c2.376,4.694,3.678,9.719,4.61,14.849L95,178.971v-14.456
		l1.989,0.1c0,0-1.547,17.014,4.982,18.457c0,0,6.551,0.392,5.581-18.333l2.448-0.014v14.789l1.573,0.147
		c0.503-7.599,0.687-15.826,6.497-20.327c0.037-0.029,0.075-0.047,0.113-0.071c0.031-0.137,0.054-0.262,0.06-0.361l0.064-10.1
		c0,0,21.772-2.49,32.816-20.889c0,0,7.783-13.799,4.663-33.182l0.195-4.356c0,0-1.119-22.391,1.368-24.014
		c0,0,1.964-2.895,5.557-1.704c0,0,12.5,3.672,12.13-10.485C175.037,54.172,173.472,46.333,164.832,46.84z"/>
	<circle fill="#FFFFFF" cx="103.167" cy="136.833" r="8.833"/>
	<rect x="43" y="31" fill="#FFFFFF" width="120" height="6"/>
	<rect x="43" y="107" fill="#FFFFFF" width="120" height="6"/>
	<rect x="71" y="36" fill="#FFFFFF" width="7" height="73"/>
	<rect x="129" y="36" fill="#FFFFFF" width="7" height="73"/>
</g>
</svg>
