<?xml version="1.0" encoding="utf-8"?>
<!-- Generator: Adobe Illustrator 17.0.0, SVG Export Plug-In . SVG Version: 6.00 Build 0)  -->
<!DOCTYPE svg PUBLIC "-//W3C//DTD SVG 1.1//EN" "http://www.w3.org/Graphics/SVG/1.1/DTD/svg11.dtd">
<svg version="1.1" xmlns="http://www.w3.org/2000/svg" xmlns:xlink="http://www.w3.org/1999/xlink" x="0px" y="0px" width="300px"
	 height="300px" viewBox="0 0 300 300" enable-background="new 0 0 300 300" xml:space="preserve">
<g id="Layer_1">
</g>
<g id="Layer_2">
	<path fill="#05C3FF" d="M206.495,160.9c0,29.876,0.364,59.758-0.162,89.625c-0.245,13.876-4.377,18.223-17.752,22.031
		c-24.285,6.915-48.589,6.79-73.033,0.306c-11.529-3.058-18.189-9.412-18.515-21.669c-0.126-4.746-0.653-9.486-0.653-14.229
		c0.009-51.391-0.313-102.789,0.438-154.17c0.182-12.457,3.568-24.946,6.22-37.259c1.94-9.01,8.386-14.345,17.363-16.125
		c20.881-4.14,41.818-4.149,62.701-0.004c8.685,1.724,15.2,6.765,17.148,15.478c2.748,12.287,5.824,24.759,6.277,37.243
		c0.953,26.226,0.29,52.513,0.29,78.775C206.713,160.9,206.604,160.9,206.495,160.9z M183.915,134.437
		c3.293-11.115,6.261-22.716,10.242-33.958c2.294-6.477,0.022-8.833-5.665-10.729c-18.927-6.304-38.242-6.949-57.682-3.837
		c-7.875,1.262-15.495,4.111-23.839,6.405c4.498,15.242,8.559,29.007,12.412,42.066c11.369-1.243,21.91-3.304,32.449-3.292
		C162.345,131.106,172.858,133.197,183.915,134.437z M191.929,251.249c-7.332-12.06-7.272-11.203-19.331-10.353
		c-13.896,0.979-27.964,0.99-41.862,0.033c-12.263-0.844-13.314-1.109-18.974,10.423
		C138.342,258.868,164.715,258.788,191.929,251.249z M199.756,231.549c0-14.985,0-29.64,0-44.275
		c-8.1-0.197-10.807,3.345-10.076,10.777c0.616,6.276,0.779,12.745-0.034,18.974C188.574,225.217,192.739,228.898,199.756,231.549z
		 M103.436,187.274c0,14.722,0,29.408,0,44.278c7.654-2.594,11.385-6.954,10.409-15.165c-0.715-6.019-0.139-12.191-0.14-18.296
		C113.703,188.514,113.702,188.514,103.436,187.274z M200.381,125.784c-8.826,15.577-12.034,31.423-10.039,47.272
		c9.869-1.532,10.035-1.713,10.038-11.164C200.385,150.35,200.381,138.809,200.381,125.784z M113.009,173.156
		c3.603-17.218-3.399-31.759-9.471-46.529c-0.551,11.838-0.552,23.581-0.551,35.322C102.988,171.286,102.99,171.286,113.009,173.156
		z"/>
</g>
</svg>
