<?xml version="1.0" encoding="utf-8"?>
<!-- Generator: Adobe Illustrator 17.0.0, SVG Export Plug-In . SVG Version: 6.00 Build 0)  -->
<!DOCTYPE svg PUBLIC "-//W3C//DTD SVG 1.1//EN" "http://www.w3.org/Graphics/SVG/1.1/DTD/svg11.dtd">
<svg version="1.1" id="Layer_1" xmlns="http://www.w3.org/2000/svg" xmlns:xlink="http://www.w3.org/1999/xlink" x="0px" y="0px"
	 width="500px" height="500px" viewBox="0 0 500 500" enable-background="new 0 0 500 500" xml:space="preserve">
<path fill="#858585" d="M310.422,41.253c6.226,3.311,12.895,6.002,18.582,10.068c10.468,7.485,16.756,18.277,20.976,30.27
	c3.168,9.001,3.387,18.359,3.38,27.805c-0.076,103.017,0.018,206.034-0.127,309.051c-0.019,13.543-6.425,24.239-16.813,32.863
	c-5.944,4.935-12.299,8.909-19.696,10.982c-3.746,1.05-7.698,1.893-11.562,1.914c-29.472,0.156-58.945,0.153-88.418,0.047
	c-9.866-0.035-19.824,0.209-29.56-1.056c-6.058-0.787-12.084-3.591-17.576-6.52c-7.235-3.859-13.012-9.634-17.679-16.526
	c-4.51-6.66-7.352-13.925-7.445-21.861c-0.257-21.895-0.145-43.795-0.079-65.693c0.251-83.547,0.544-167.093,0.814-250.64
	c0.049-15.187,5.209-28.519,14.197-40.635c7.375-9.941,17.232-16.095,28.696-20.068C228.883,41.253,269.653,41.253,310.422,41.253z
	 M187.546,216.403c41.218,0,82.223,0,123.387,0c6.532-25.475,13.042-50.867,19.586-76.39c-22.696-7.787-45.846-10.97-69.279-11.969
	c-19.526-0.832-39.013,0.454-58.265,4.058c-10.868,2.034-21.681,4.375-32.462,6.829c-0.938,0.214-2.15,2.395-2.014,3.514
	c0.304,2.501,1.491,4.879,2.123,7.357C176.282,171.973,181.899,194.154,187.546,216.403z M167.411,389.09
	c54.575,13.863,108.488,12.139,162.55,1.579c-6.353-19.282-12.679-38.482-19.308-58.603c-8.731,0-17.49,0-26.248,0
	c-28.509,0-57.019,0-85.528,0c-10.513,0-10.515-0.001-14.095,9.96c-0.137,0.38-0.101,0.823-0.242,1.201
	C178.946,358.225,173.341,373.22,167.411,389.09z M319.43,279.265c1.331-0.084,2.25-0.088,3.152-0.209
	c5.364-0.717,10.705-1.746,16.092-2.094c3.556-0.23,4.982-1.175,4.965-5.029c-0.14-31.249-0.076-62.498-0.089-93.747
	c0-1.089-0.152-2.178-0.319-4.43c-5.769,15.587-10.364,30.301-16.628,44.265c-6.047,13.48-8.117,27.166-7.238,41.664
	C319.754,266.103,319.43,272.565,319.43,279.265z M179.086,279.318c0-13.575,0.009-26.77-0.029-39.965
	c-0.002-0.626-0.428-1.252-0.664-1.875c-5.818-15.39-11.646-30.775-17.45-46.171c-1.767-4.686-3.463-9.399-5.192-14.1
	c-0.202,0.073-0.405,0.147-0.608,0.22c0,32.729,0,65.458,0,98.605C162.982,277.109,170.715,278.17,179.086,279.318z M155.501,286.93
	c0,25.005,0,49.687,0,74.919c5.711-10.784,10.875-21.186,16.645-31.24c5.434-9.469,8.226-19.268,7.051-30.254
	c-0.533-4.987-0.091-10.079-0.091-15.771C171.095,285.38,163.695,286.116,155.501,286.93z M341.819,360.604
	c0.581-0.065,1.161-0.13,1.742-0.196c0-8.598,0-17.196,0-25.794c0-12.643,0.023-25.285-0.018-37.928
	c-0.009-2.723,0.587-5.97-0.676-7.984c-0.848-1.352-4.483-0.949-6.868-1.351c-0.259-0.044-0.487-0.3-0.743-0.326
	c-4.905-0.504-9.812-0.988-14.999-1.503c0,5.581,0.396,10.284-0.08,14.896c-1.093,10.584,1.753,19.928,6.83,29.169
	C332.514,339.613,336.928,350.24,341.819,360.604z"/>
</svg>
