<?xml version="1.0" standalone="no"?>
<!DOCTYPE svg PUBLIC "-//W3C//DTD SVG 20010904//EN"
 "http://www.w3.org/TR/2001/REC-SVG-20010904/DTD/svg10.dtd">
<svg version="1.0" xmlns="http://www.w3.org/2000/svg"
 width="512.000000pt" height="512.000000pt" viewBox="0 0 512.000000 512.000000"
 preserveAspectRatio="xMidYMid meet">
<metadata>
Created by potrace 1.15, written by Peter Selinger 2001-2017
</metadata>
<g transform="translate(0.000000,512.000000) scale(0.100000,-0.100000)"
fill="#000000" stroke="none">
<path d="M1674 5106 c-201 -64 -379 -263 -456 -511 l-21 -70 -8 -2000 c-7
-1745 -6 -2008 7 -2060 17 -68 46 -134 83 -185 30 -43 148 -157 178 -173 56
-31 113 -56 172 -78 l64 -23 761 0 761 -1 66 23 c180 62 327 197 398 364 l26
63 0 2025 c0 1943 -1 2028 -19 2095 -40 151 -138 312 -248 409 -29 26 -91 66
-137 89 l-84 42 -751 2 c-588 1 -760 -1 -792 -11z m1057 -1046 c217 -17 440
-57 627 -112 65 -19 73 -24 69 -42 -2 -12 -56 -220 -118 -463 l-114 -443 -745
0 -745 0 -48 188 c-26 103 -80 310 -119 460 -38 150 -68 275 -65 278 12 12
241 65 387 90 294 50 596 65 871 44z m854 -1778 c-4 -4 -240 -39 -277 -42 -5
0 -8 114 -8 254 l0 254 124 328 c68 181 132 353 142 383 l19 54 3 -613 c1
-337 0 -615 -3 -618z m-2249 1146 c9 -29 73 -199 141 -378 l123 -325 0 -243 0
-243 -32 5 c-18 3 -69 10 -113 16 -44 6 -95 13 -112 16 l-33 5 0 599 c0 330 2
600 4 600 3 0 12 -24 22 -52z m264 -1447 l0 -190 -96 -188 c-53 -103 -119
-228 -146 -278 l-49 -90 5 160 c3 88 6 293 6 456 l0 296 88 10 c48 5 111 11
140 11 l52 2 0 -189z m1861 169 c46 -6 94 -13 107 -16 l22 -4 0 -334 c0 -183
-3 -382 -7 -441 l-6 -108 -44 88 c-25 48 -46 97 -49 108 -2 11 -9 24 -16 29
-7 4 -10 8 -5 8 4 0 -29 72 -73 160 l-80 160 0 180 0 180 33 0 c19 0 72 -5
118 -10z m-414 -556 l150 -7 32 -92 c18 -51 34 -103 36 -116 1 -13 39 -129 83
-256 73 -212 79 -233 61 -233 -11 0 -48 -6 -82 -14 -72 -17 -181 -35 -252 -41
-27 -3 -84 -9 -125 -14 -157 -20 -474 -34 -638 -28 -264 10 -527 43 -749 94
-101 23 -99 21 -75 89 11 33 52 151 92 264 39 112 75 209 79 215 5 5 18 40 30
78 l23 67 592 0 c326 0 660 -3 743 -6z"/>
</g>
</svg>
